<svg width="596" height="211" xmlns="http://www.w3.org/2000/svg">

 <g>
  <title>background</title>
  <rect fill="none" id="canvas_background" height="213" width="598" y="-1" x="-1"/>
 </g>
 <g>
  <title>Layer 1</title>
  <g stroke="null" id="svg_1">
   <g stroke="null" id="_x32_37._Locked">
    <g stroke="null" id="svg_2">
     <path stroke="null" id="svg_3" fill="#D80027" d="m139.763235,76.69529l0,-20.229613c0,-22.350727 -19.345418,-40.46567 -43.204552,-40.46567c-23.862803,0 -43.204093,18.114943 -43.204093,40.46567l0,20.229613c-7.952433,0 -14.4006,6.03946 -14.4006,13.487841l0,67.446076c0,7.450099 6.448167,13.4887 14.4006,13.4887l86.408645,0c7.952892,0 14.399683,-6.03903 14.399683,-13.4887l0,-67.446076c0.000459,-7.448381 -6.446791,-13.487841 -14.399683,-13.487841zm-72.007128,-20.229613c0,-14.901057 12.896334,-26.97697 28.802576,-26.97697c15.90716,0 28.803493,12.075483 28.803493,26.97697l0,20.229613l-57.606069,0l0,-20.229613zm72.007128,101.163101l-86.408645,0l0,-67.442211l86.408645,0l0,67.442211zm-50.405311,-28.847227l0,8.614177c0,3.721613 3.226376,6.74435 7.200759,6.74435c3.973465,0 7.200759,-3.022737 7.200759,-6.74435l0,-8.614177c4.282115,-2.337176 7.200759,-6.63911 7.200759,-11.617584c0,-7.451817 -6.449084,-13.492136 -14.401517,-13.492136c-7.952433,0 -14.4006,6.040319 -14.4006,13.492136c0,4.978474 2.915892,9.280408 7.199841,11.617584z"/>
    </g>
   </g>
  </g>
  <g id="svg_4"/>
  <g id="svg_5"/>
  <g id="svg_6"/>
  <g id="svg_7"/>
  <g id="svg_8"/>
  <g id="svg_9"/>
  <g id="svg_10"/>
  <g id="svg_11"/>
  <g id="svg_12"/>
  <g id="svg_13"/>
  <g id="svg_14"/>
  <g id="svg_15"/>
  <g id="svg_16"/>
  <g id="svg_17"/>
  <g id="svg_18"/>
  <text xml:space="preserve" text-anchor="start" font-family="'Trebuchet MS', Gadget, sans-serif" font-size="100" id="svg_19" y="151.874955" x="169.999832" stroke-width="0" stroke="#000" fill="#000000">LaraAuth</text>
 </g>
</svg>